<mxfile host="app.diagrams.net" modified="2021-12-01T21:33:18.760Z" agent="5.0 (Macintosh; Intel Mac OS X 10_15_4) AppleWebKit/537.36 (KHTML, like Gecko) Chrome/96.0.4664.55 Safari/537.36" etag="YXMAfuZ1y5LfckY0PGQK" version="15.8.6" type="github">
  <diagram name="Page-1" id="e56a1550-8fbb-45ad-956c-1786394a9013">
    <mxGraphModel dx="1554" dy="1003" grid="0" gridSize="10" guides="1" tooltips="1" connect="1" arrows="1" fold="1" page="1" pageScale="1" pageWidth="2000" pageHeight="2000" background="none" math="0" shadow="0">
      <root>
        <mxCell id="0" />
        <mxCell id="1" parent="0" />
        <mxCell id="2e49270ec7c68f3f-80" value="products" style="swimlane;html=1;fontStyle=0;childLayout=stackLayout;horizontal=1;startSize=26;fillColor=#ffe6cc;horizontalStack=0;resizeParent=1;resizeLast=0;collapsible=1;marginBottom=0;swimlaneFillColor=#ffffff;align=center;shadow=1;comic=0;labelBackgroundColor=none;strokeWidth=1;fontFamily=Verdana;fontSize=14;strokeColor=default;rounded=1;sketch=0;glass=0;swimlaneLine=1;" parent="1" vertex="1">
          <mxGeometry x="755" y="721" width="285" height="170" as="geometry" />
        </mxCell>
        <mxCell id="2e49270ec7c68f3f-81" value="id SERIAL" style="shape=partialRectangle;top=0;left=0;right=0;bottom=1;html=1;align=left;verticalAlign=middle;fillColor=none;spacingLeft=34;spacingRight=4;whiteSpace=wrap;overflow=hidden;rotatable=0;points=[[0,0.5],[1,0.5]];portConstraint=eastwest;dropTarget=0;fontStyle=5;rounded=1;" parent="2e49270ec7c68f3f-80" vertex="1">
          <mxGeometry y="26" width="285" height="30" as="geometry" />
        </mxCell>
        <mxCell id="2e49270ec7c68f3f-82" value="PK" style="shape=partialRectangle;top=0;left=0;bottom=0;html=1;fillColor=none;align=left;verticalAlign=middle;spacingLeft=4;spacingRight=4;whiteSpace=wrap;overflow=hidden;rotatable=0;points=[];portConstraint=eastwest;part=1;rounded=1;" parent="2e49270ec7c68f3f-81" vertex="1" connectable="0">
          <mxGeometry width="30" height="30" as="geometry" />
        </mxCell>
        <mxCell id="2e49270ec7c68f3f-83" value="name TEXT NOT NULL" style="shape=partialRectangle;top=0;left=0;right=0;bottom=0;html=1;align=left;verticalAlign=top;fillColor=none;spacingLeft=34;spacingRight=4;whiteSpace=wrap;overflow=hidden;rotatable=0;points=[[0,0.5],[1,0.5]];portConstraint=eastwest;dropTarget=0;rounded=1;" parent="2e49270ec7c68f3f-80" vertex="1">
          <mxGeometry y="56" width="285" height="26" as="geometry" />
        </mxCell>
        <mxCell id="2e49270ec7c68f3f-84" value="" style="shape=partialRectangle;top=0;left=0;bottom=0;html=1;fillColor=none;align=left;verticalAlign=top;spacingLeft=4;spacingRight=4;whiteSpace=wrap;overflow=hidden;rotatable=0;points=[];portConstraint=eastwest;part=1;rounded=1;" parent="2e49270ec7c68f3f-83" vertex="1" connectable="0">
          <mxGeometry width="30" height="26" as="geometry" />
        </mxCell>
        <mxCell id="2e49270ec7c68f3f-85" value="description JSON NOT NULL" style="shape=partialRectangle;top=0;left=0;right=0;bottom=0;html=1;align=left;verticalAlign=top;fillColor=none;spacingLeft=34;spacingRight=4;whiteSpace=wrap;overflow=hidden;rotatable=0;points=[[0,0.5],[1,0.5]];portConstraint=eastwest;dropTarget=0;rounded=1;" parent="2e49270ec7c68f3f-80" vertex="1">
          <mxGeometry y="82" width="285" height="26" as="geometry" />
        </mxCell>
        <mxCell id="2e49270ec7c68f3f-86" value="" style="shape=partialRectangle;top=0;left=0;bottom=0;html=1;fillColor=none;align=left;verticalAlign=top;spacingLeft=4;spacingRight=4;whiteSpace=wrap;overflow=hidden;rotatable=0;points=[];portConstraint=eastwest;part=1;rounded=1;" parent="2e49270ec7c68f3f-85" vertex="1" connectable="0">
          <mxGeometry width="30" height="26" as="geometry" />
        </mxCell>
        <mxCell id="2e49270ec7c68f3f-87" value="price INTEGER NOT NULL" style="shape=partialRectangle;top=0;left=0;right=0;bottom=0;html=1;align=left;verticalAlign=top;fillColor=none;spacingLeft=34;spacingRight=4;whiteSpace=wrap;overflow=hidden;rotatable=0;points=[[0,0.5],[1,0.5]];portConstraint=eastwest;dropTarget=0;rounded=1;" parent="2e49270ec7c68f3f-80" vertex="1">
          <mxGeometry y="108" width="285" height="26" as="geometry" />
        </mxCell>
        <mxCell id="2e49270ec7c68f3f-88" value="" style="shape=partialRectangle;top=0;left=0;bottom=0;html=1;fillColor=none;align=left;verticalAlign=top;spacingLeft=4;spacingRight=4;whiteSpace=wrap;overflow=hidden;rotatable=0;points=[];portConstraint=eastwest;part=1;rounded=1;" parent="2e49270ec7c68f3f-87" vertex="1" connectable="0">
          <mxGeometry width="30" height="26" as="geometry" />
        </mxCell>
        <mxCell id="dMUp6H3SG2-F3wlHeGuU-36" value="category_id INTEGER NOT NULL" style="shape=partialRectangle;top=0;left=0;right=0;bottom=0;html=1;align=left;verticalAlign=top;fillColor=none;spacingLeft=34;spacingRight=4;whiteSpace=wrap;overflow=hidden;rotatable=0;points=[[0,0.5],[1,0.5]];portConstraint=eastwest;dropTarget=0;rounded=1;" parent="2e49270ec7c68f3f-80" vertex="1">
          <mxGeometry y="134" width="285" height="26" as="geometry" />
        </mxCell>
        <mxCell id="dMUp6H3SG2-F3wlHeGuU-37" value="FK" style="shape=partialRectangle;top=0;left=0;bottom=0;html=1;fillColor=none;align=left;verticalAlign=top;spacingLeft=4;spacingRight=4;whiteSpace=wrap;overflow=hidden;rotatable=0;points=[];portConstraint=eastwest;part=1;rounded=1;" parent="dMUp6H3SG2-F3wlHeGuU-36" vertex="1" connectable="0">
          <mxGeometry width="30" height="26" as="geometry" />
        </mxCell>
        <mxCell id="2e49270ec7c68f3f-89" value="" style="shape=partialRectangle;top=0;left=0;right=0;bottom=0;html=1;align=left;verticalAlign=top;fillColor=none;spacingLeft=34;spacingRight=4;whiteSpace=wrap;overflow=hidden;rotatable=0;points=[[0,0.5],[1,0.5]];portConstraint=eastwest;dropTarget=0;rounded=1;" parent="2e49270ec7c68f3f-80" vertex="1">
          <mxGeometry y="160" width="285" height="10" as="geometry" />
        </mxCell>
        <mxCell id="2e49270ec7c68f3f-90" value="" style="shape=partialRectangle;top=0;left=0;bottom=0;html=1;fillColor=none;align=left;verticalAlign=top;spacingLeft=4;spacingRight=4;whiteSpace=wrap;overflow=hidden;rotatable=0;points=[];portConstraint=eastwest;part=1;rounded=1;" parent="2e49270ec7c68f3f-89" vertex="1" connectable="0">
          <mxGeometry width="30" height="10" as="geometry" />
        </mxCell>
        <mxCell id="dMUp6H3SG2-F3wlHeGuU-1" value="product_media" style="swimlane;html=1;fontStyle=0;childLayout=stackLayout;horizontal=1;startSize=26;fillColor=#ffe6cc;horizontalStack=0;resizeParent=1;resizeLast=0;collapsible=1;marginBottom=0;swimlaneFillColor=#ffffff;align=center;shadow=1;comic=0;labelBackgroundColor=none;strokeWidth=1;fontFamily=Verdana;fontSize=14;strokeColor=default;rounded=1;sketch=0;glass=0;swimlaneLine=1;" parent="1" vertex="1">
          <mxGeometry x="1157" y="587" width="293" height="144" as="geometry" />
        </mxCell>
        <mxCell id="dMUp6H3SG2-F3wlHeGuU-2" value="id SERIAL" style="shape=partialRectangle;top=0;left=0;right=0;bottom=1;html=1;align=left;verticalAlign=middle;fillColor=none;spacingLeft=34;spacingRight=4;whiteSpace=wrap;overflow=hidden;rotatable=0;points=[[0,0.5],[1,0.5]];portConstraint=eastwest;dropTarget=0;fontStyle=5;rounded=1;" parent="dMUp6H3SG2-F3wlHeGuU-1" vertex="1">
          <mxGeometry y="26" width="293" height="30" as="geometry" />
        </mxCell>
        <mxCell id="dMUp6H3SG2-F3wlHeGuU-3" value="PK" style="shape=partialRectangle;top=0;left=0;bottom=0;html=1;fillColor=none;align=left;verticalAlign=middle;spacingLeft=4;spacingRight=4;whiteSpace=wrap;overflow=hidden;rotatable=0;points=[];portConstraint=eastwest;part=1;rounded=1;" parent="dMUp6H3SG2-F3wlHeGuU-2" vertex="1" connectable="0">
          <mxGeometry width="30" height="30" as="geometry" />
        </mxCell>
        <mxCell id="dMUp6H3SG2-F3wlHeGuU-4" value="product_id INTEGER NOT NULL" style="shape=partialRectangle;top=0;left=0;right=0;bottom=0;html=1;align=left;verticalAlign=top;fillColor=none;spacingLeft=34;spacingRight=4;whiteSpace=wrap;overflow=hidden;rotatable=0;points=[[0,0.5],[1,0.5]];portConstraint=eastwest;dropTarget=0;rounded=1;" parent="dMUp6H3SG2-F3wlHeGuU-1" vertex="1">
          <mxGeometry y="56" width="293" height="26" as="geometry" />
        </mxCell>
        <mxCell id="dMUp6H3SG2-F3wlHeGuU-5" value="FK" style="shape=partialRectangle;top=0;left=0;bottom=0;html=1;fillColor=none;align=left;verticalAlign=top;spacingLeft=4;spacingRight=4;whiteSpace=wrap;overflow=hidden;rotatable=0;points=[];portConstraint=eastwest;part=1;rounded=1;" parent="dMUp6H3SG2-F3wlHeGuU-4" vertex="1" connectable="0">
          <mxGeometry width="30" height="26" as="geometry" />
        </mxCell>
        <mxCell id="dMUp6H3SG2-F3wlHeGuU-6" value="media_type MEDIA NOT NULL" style="shape=partialRectangle;top=0;left=0;right=0;bottom=0;html=1;align=left;verticalAlign=top;fillColor=none;spacingLeft=34;spacingRight=4;whiteSpace=wrap;overflow=hidden;rotatable=0;points=[[0,0.5],[1,0.5]];portConstraint=eastwest;dropTarget=0;rounded=1;" parent="dMUp6H3SG2-F3wlHeGuU-1" vertex="1">
          <mxGeometry y="82" width="293" height="26" as="geometry" />
        </mxCell>
        <mxCell id="dMUp6H3SG2-F3wlHeGuU-7" value="" style="shape=partialRectangle;top=0;left=0;bottom=0;html=1;fillColor=none;align=left;verticalAlign=top;spacingLeft=4;spacingRight=4;whiteSpace=wrap;overflow=hidden;rotatable=0;points=[];portConstraint=eastwest;part=1;rounded=1;" parent="dMUp6H3SG2-F3wlHeGuU-6" vertex="1" connectable="0">
          <mxGeometry width="30" height="26" as="geometry" />
        </mxCell>
        <mxCell id="dMUp6H3SG2-F3wlHeGuU-8" value="link VARCHAR(2048) NOT NULL" style="shape=partialRectangle;top=0;left=0;right=0;bottom=0;html=1;align=left;verticalAlign=top;fillColor=none;spacingLeft=34;spacingRight=4;whiteSpace=wrap;overflow=hidden;rotatable=0;points=[[0,0.5],[1,0.5]];portConstraint=eastwest;dropTarget=0;rounded=1;" parent="dMUp6H3SG2-F3wlHeGuU-1" vertex="1">
          <mxGeometry y="108" width="293" height="26" as="geometry" />
        </mxCell>
        <mxCell id="dMUp6H3SG2-F3wlHeGuU-9" value="" style="shape=partialRectangle;top=0;left=0;bottom=0;html=1;fillColor=none;align=left;verticalAlign=top;spacingLeft=4;spacingRight=4;whiteSpace=wrap;overflow=hidden;rotatable=0;points=[];portConstraint=eastwest;part=1;rounded=1;" parent="dMUp6H3SG2-F3wlHeGuU-8" vertex="1" connectable="0">
          <mxGeometry width="30" height="26" as="geometry" />
        </mxCell>
        <mxCell id="dMUp6H3SG2-F3wlHeGuU-10" value="" style="shape=partialRectangle;top=0;left=0;right=0;bottom=0;html=1;align=left;verticalAlign=top;fillColor=none;spacingLeft=34;spacingRight=4;whiteSpace=wrap;overflow=hidden;rotatable=0;points=[[0,0.5],[1,0.5]];portConstraint=eastwest;dropTarget=0;rounded=1;" parent="dMUp6H3SG2-F3wlHeGuU-1" vertex="1">
          <mxGeometry y="134" width="293" height="10" as="geometry" />
        </mxCell>
        <mxCell id="dMUp6H3SG2-F3wlHeGuU-11" value="" style="shape=partialRectangle;top=0;left=0;bottom=0;html=1;fillColor=none;align=left;verticalAlign=top;spacingLeft=4;spacingRight=4;whiteSpace=wrap;overflow=hidden;rotatable=0;points=[];portConstraint=eastwest;part=1;rounded=1;" parent="dMUp6H3SG2-F3wlHeGuU-10" vertex="1" connectable="0">
          <mxGeometry width="30" height="10" as="geometry" />
        </mxCell>
        <mxCell id="dMUp6H3SG2-F3wlHeGuU-12" style="edgeStyle=orthogonalEdgeStyle;rounded=0;orthogonalLoop=1;jettySize=auto;html=1;entryX=1;entryY=0.5;entryDx=0;entryDy=0;" parent="1" source="dMUp6H3SG2-F3wlHeGuU-4" target="2e49270ec7c68f3f-81" edge="1">
          <mxGeometry relative="1" as="geometry" />
        </mxCell>
        <mxCell id="dMUp6H3SG2-F3wlHeGuU-17" value="&lt;p style=&quot;margin: 0px ; margin-top: 4px ; text-align: center&quot;&gt;&lt;i&gt;&amp;lt;&amp;lt;Enumeration&amp;gt;&amp;gt;&lt;/i&gt;&lt;br&gt;&lt;b&gt;MEDIA&lt;/b&gt;&lt;/p&gt;&lt;hr size=&quot;1&quot;&gt;&lt;p style=&quot;margin: 0px ; margin-left: 4px&quot;&gt;&lt;span style=&quot;white-space: pre&quot;&gt; &lt;/span&gt;photo&lt;br&gt;&lt;span style=&quot;white-space: pre&quot;&gt; &lt;/span&gt;video&lt;/p&gt;" style="verticalAlign=top;align=left;overflow=fill;fontSize=12;fontFamily=Helvetica;html=1;sketch=0;rounded=1;fillColor=#ffe6cc;strokeColor=#d79b00;" parent="1" vertex="1">
          <mxGeometry x="1605" y="638" width="212" height="83" as="geometry" />
        </mxCell>
        <mxCell id="dMUp6H3SG2-F3wlHeGuU-18" style="edgeStyle=orthogonalEdgeStyle;rounded=0;orthogonalLoop=1;jettySize=auto;html=1;entryX=0;entryY=0.75;entryDx=0;entryDy=0;" parent="1" source="dMUp6H3SG2-F3wlHeGuU-6" target="dMUp6H3SG2-F3wlHeGuU-17" edge="1">
          <mxGeometry relative="1" as="geometry" />
        </mxCell>
        <mxCell id="dMUp6H3SG2-F3wlHeGuU-19" value="customers" style="swimlane;html=1;fontStyle=0;childLayout=stackLayout;horizontal=1;startSize=26;fillColor=#ffe6cc;horizontalStack=0;resizeParent=1;resizeLast=0;collapsible=1;marginBottom=0;swimlaneFillColor=#ffffff;align=center;shadow=1;comic=0;labelBackgroundColor=none;strokeWidth=1;fontFamily=Verdana;fontSize=14;strokeColor=default;rounded=1;sketch=0;glass=0;swimlaneLine=1;" parent="1" vertex="1">
          <mxGeometry x="372" y="412" width="285" height="170" as="geometry" />
        </mxCell>
        <mxCell id="dMUp6H3SG2-F3wlHeGuU-20" value="id SERIAL" style="shape=partialRectangle;top=0;left=0;right=0;bottom=1;html=1;align=left;verticalAlign=middle;fillColor=none;spacingLeft=34;spacingRight=4;whiteSpace=wrap;overflow=hidden;rotatable=0;points=[[0,0.5],[1,0.5]];portConstraint=eastwest;dropTarget=0;fontStyle=5;rounded=1;" parent="dMUp6H3SG2-F3wlHeGuU-19" vertex="1">
          <mxGeometry y="26" width="285" height="30" as="geometry" />
        </mxCell>
        <mxCell id="dMUp6H3SG2-F3wlHeGuU-21" value="PK" style="shape=partialRectangle;top=0;left=0;bottom=0;html=1;fillColor=none;align=left;verticalAlign=middle;spacingLeft=4;spacingRight=4;whiteSpace=wrap;overflow=hidden;rotatable=0;points=[];portConstraint=eastwest;part=1;rounded=1;" parent="dMUp6H3SG2-F3wlHeGuU-20" vertex="1" connectable="0">
          <mxGeometry width="30" height="30" as="geometry" />
        </mxCell>
        <mxCell id="dMUp6H3SG2-F3wlHeGuU-22" value="name TEXT NOT NULL" style="shape=partialRectangle;top=0;left=0;right=0;bottom=0;html=1;align=left;verticalAlign=top;fillColor=none;spacingLeft=34;spacingRight=4;whiteSpace=wrap;overflow=hidden;rotatable=0;points=[[0,0.5],[1,0.5]];portConstraint=eastwest;dropTarget=0;rounded=1;" parent="dMUp6H3SG2-F3wlHeGuU-19" vertex="1">
          <mxGeometry y="56" width="285" height="26" as="geometry" />
        </mxCell>
        <mxCell id="dMUp6H3SG2-F3wlHeGuU-23" value="" style="shape=partialRectangle;top=0;left=0;bottom=0;html=1;fillColor=none;align=left;verticalAlign=top;spacingLeft=4;spacingRight=4;whiteSpace=wrap;overflow=hidden;rotatable=0;points=[];portConstraint=eastwest;part=1;rounded=1;" parent="dMUp6H3SG2-F3wlHeGuU-22" vertex="1" connectable="0">
          <mxGeometry width="30" height="26" as="geometry" />
        </mxCell>
        <mxCell id="dMUp6H3SG2-F3wlHeGuU-24" value="phone TEXT NOT NULL" style="shape=partialRectangle;top=0;left=0;right=0;bottom=0;html=1;align=left;verticalAlign=top;fillColor=none;spacingLeft=34;spacingRight=4;whiteSpace=wrap;overflow=hidden;rotatable=0;points=[[0,0.5],[1,0.5]];portConstraint=eastwest;dropTarget=0;rounded=1;" parent="dMUp6H3SG2-F3wlHeGuU-19" vertex="1">
          <mxGeometry y="82" width="285" height="26" as="geometry" />
        </mxCell>
        <mxCell id="dMUp6H3SG2-F3wlHeGuU-25" value="" style="shape=partialRectangle;top=0;left=0;bottom=0;html=1;fillColor=none;align=left;verticalAlign=top;spacingLeft=4;spacingRight=4;whiteSpace=wrap;overflow=hidden;rotatable=0;points=[];portConstraint=eastwest;part=1;rounded=1;" parent="dMUp6H3SG2-F3wlHeGuU-24" vertex="1" connectable="0">
          <mxGeometry width="30" height="26" as="geometry" />
        </mxCell>
        <mxCell id="dMUp6H3SG2-F3wlHeGuU-26" value="email TEXT NOT NULL" style="shape=partialRectangle;top=0;left=0;right=0;bottom=0;html=1;align=left;verticalAlign=top;fillColor=none;spacingLeft=34;spacingRight=4;whiteSpace=wrap;overflow=hidden;rotatable=0;points=[[0,0.5],[1,0.5]];portConstraint=eastwest;dropTarget=0;rounded=1;" parent="dMUp6H3SG2-F3wlHeGuU-19" vertex="1">
          <mxGeometry y="108" width="285" height="26" as="geometry" />
        </mxCell>
        <mxCell id="dMUp6H3SG2-F3wlHeGuU-27" value="" style="shape=partialRectangle;top=0;left=0;bottom=0;html=1;fillColor=none;align=left;verticalAlign=top;spacingLeft=4;spacingRight=4;whiteSpace=wrap;overflow=hidden;rotatable=0;points=[];portConstraint=eastwest;part=1;rounded=1;" parent="dMUp6H3SG2-F3wlHeGuU-26" vertex="1" connectable="0">
          <mxGeometry width="30" height="26" as="geometry" />
        </mxCell>
        <mxCell id="dMUp6H3SG2-F3wlHeGuU-32" value="account_id INTEGER" style="shape=partialRectangle;top=0;left=0;right=0;bottom=0;html=1;align=left;verticalAlign=top;fillColor=none;spacingLeft=34;spacingRight=4;whiteSpace=wrap;overflow=hidden;rotatable=0;points=[[0,0.5],[1,0.5]];portConstraint=eastwest;dropTarget=0;rounded=1;" parent="dMUp6H3SG2-F3wlHeGuU-19" vertex="1">
          <mxGeometry y="134" width="285" height="26" as="geometry" />
        </mxCell>
        <mxCell id="dMUp6H3SG2-F3wlHeGuU-33" value="" style="shape=partialRectangle;top=0;left=0;bottom=0;html=1;fillColor=none;align=left;verticalAlign=top;spacingLeft=4;spacingRight=4;whiteSpace=wrap;overflow=hidden;rotatable=0;points=[];portConstraint=eastwest;part=1;rounded=1;" parent="dMUp6H3SG2-F3wlHeGuU-32" vertex="1" connectable="0">
          <mxGeometry width="30" height="26" as="geometry" />
        </mxCell>
        <mxCell id="dMUp6H3SG2-F3wlHeGuU-28" value="" style="shape=partialRectangle;top=0;left=0;right=0;bottom=0;html=1;align=left;verticalAlign=top;fillColor=none;spacingLeft=34;spacingRight=4;whiteSpace=wrap;overflow=hidden;rotatable=0;points=[[0,0.5],[1,0.5]];portConstraint=eastwest;dropTarget=0;rounded=1;" parent="dMUp6H3SG2-F3wlHeGuU-19" vertex="1">
          <mxGeometry y="160" width="285" height="10" as="geometry" />
        </mxCell>
        <mxCell id="dMUp6H3SG2-F3wlHeGuU-29" value="" style="shape=partialRectangle;top=0;left=0;bottom=0;html=1;fillColor=none;align=left;verticalAlign=top;spacingLeft=4;spacingRight=4;whiteSpace=wrap;overflow=hidden;rotatable=0;points=[];portConstraint=eastwest;part=1;rounded=1;" parent="dMUp6H3SG2-F3wlHeGuU-28" vertex="1" connectable="0">
          <mxGeometry width="30" height="10" as="geometry" />
        </mxCell>
        <mxCell id="dMUp6H3SG2-F3wlHeGuU-51" value="category" style="swimlane;html=1;fontStyle=0;childLayout=stackLayout;horizontal=1;startSize=26;fillColor=#ffe6cc;horizontalStack=0;resizeParent=1;resizeLast=0;collapsible=1;marginBottom=0;swimlaneFillColor=#ffffff;align=center;shadow=1;comic=0;labelBackgroundColor=none;strokeWidth=1;fontFamily=Verdana;fontSize=14;strokeColor=default;rounded=1;sketch=0;glass=0;swimlaneLine=1;" parent="1" vertex="1">
          <mxGeometry x="334" y="949" width="285" height="108" as="geometry" />
        </mxCell>
        <mxCell id="dMUp6H3SG2-F3wlHeGuU-52" value="id SERIAL" style="shape=partialRectangle;top=0;left=0;right=0;bottom=1;html=1;align=left;verticalAlign=middle;fillColor=none;spacingLeft=34;spacingRight=4;whiteSpace=wrap;overflow=hidden;rotatable=0;points=[[0,0.5],[1,0.5]];portConstraint=eastwest;dropTarget=0;fontStyle=5;rounded=1;" parent="dMUp6H3SG2-F3wlHeGuU-51" vertex="1">
          <mxGeometry y="26" width="285" height="30" as="geometry" />
        </mxCell>
        <mxCell id="dMUp6H3SG2-F3wlHeGuU-53" value="PK" style="shape=partialRectangle;top=0;left=0;bottom=0;html=1;fillColor=none;align=left;verticalAlign=middle;spacingLeft=4;spacingRight=4;whiteSpace=wrap;overflow=hidden;rotatable=0;points=[];portConstraint=eastwest;part=1;rounded=1;" parent="dMUp6H3SG2-F3wlHeGuU-52" vertex="1" connectable="0">
          <mxGeometry width="30" height="30" as="geometry" />
        </mxCell>
        <mxCell id="dMUp6H3SG2-F3wlHeGuU-54" value="name TEXT NOT NULL" style="shape=partialRectangle;top=0;left=0;right=0;bottom=0;html=1;align=left;verticalAlign=top;fillColor=none;spacingLeft=34;spacingRight=4;whiteSpace=wrap;overflow=hidden;rotatable=0;points=[[0,0.5],[1,0.5]];portConstraint=eastwest;dropTarget=0;rounded=1;" parent="dMUp6H3SG2-F3wlHeGuU-51" vertex="1">
          <mxGeometry y="56" width="285" height="26" as="geometry" />
        </mxCell>
        <mxCell id="dMUp6H3SG2-F3wlHeGuU-55" value="" style="shape=partialRectangle;top=0;left=0;bottom=0;html=1;fillColor=none;align=left;verticalAlign=top;spacingLeft=4;spacingRight=4;whiteSpace=wrap;overflow=hidden;rotatable=0;points=[];portConstraint=eastwest;part=1;rounded=1;" parent="dMUp6H3SG2-F3wlHeGuU-54" vertex="1" connectable="0">
          <mxGeometry width="30" height="26" as="geometry" />
        </mxCell>
        <mxCell id="dMUp6H3SG2-F3wlHeGuU-67" style="edgeStyle=orthogonalEdgeStyle;rounded=0;orthogonalLoop=1;jettySize=auto;html=1;entryX=0;entryY=0.5;entryDx=0;entryDy=0;" parent="dMUp6H3SG2-F3wlHeGuU-51" source="dMUp6H3SG2-F3wlHeGuU-64" target="dMUp6H3SG2-F3wlHeGuU-52" edge="1">
          <mxGeometry relative="1" as="geometry" />
        </mxCell>
        <mxCell id="dMUp6H3SG2-F3wlHeGuU-64" value="parent_id INTEGER" style="shape=partialRectangle;top=0;left=0;right=0;bottom=0;html=1;align=left;verticalAlign=top;fillColor=none;spacingLeft=34;spacingRight=4;whiteSpace=wrap;overflow=hidden;rotatable=0;points=[[0,0.5],[1,0.5]];portConstraint=eastwest;dropTarget=0;rounded=1;" parent="dMUp6H3SG2-F3wlHeGuU-51" vertex="1">
          <mxGeometry y="82" width="285" height="26" as="geometry" />
        </mxCell>
        <mxCell id="dMUp6H3SG2-F3wlHeGuU-65" value="" style="shape=partialRectangle;top=0;left=0;bottom=0;html=1;fillColor=none;align=left;verticalAlign=top;spacingLeft=4;spacingRight=4;whiteSpace=wrap;overflow=hidden;rotatable=0;points=[];portConstraint=eastwest;part=1;rounded=1;" parent="dMUp6H3SG2-F3wlHeGuU-64" vertex="1" connectable="0">
          <mxGeometry width="30" height="26" as="geometry" />
        </mxCell>
        <mxCell id="dMUp6H3SG2-F3wlHeGuU-66" style="edgeStyle=orthogonalEdgeStyle;rounded=0;orthogonalLoop=1;jettySize=auto;html=1;entryX=1;entryY=0.5;entryDx=0;entryDy=0;" parent="1" source="dMUp6H3SG2-F3wlHeGuU-36" target="dMUp6H3SG2-F3wlHeGuU-52" edge="1">
          <mxGeometry relative="1" as="geometry" />
        </mxCell>
        <mxCell id="dMUp6H3SG2-F3wlHeGuU-68" value="order" style="swimlane;html=1;fontStyle=0;childLayout=stackLayout;horizontal=1;startSize=26;fillColor=#ffe6cc;horizontalStack=0;resizeParent=1;resizeLast=0;collapsible=1;marginBottom=0;swimlaneFillColor=#ffffff;align=center;shadow=1;comic=0;labelBackgroundColor=none;strokeWidth=1;fontFamily=Verdana;fontSize=14;strokeColor=default;rounded=1;sketch=0;glass=0;swimlaneLine=1;" parent="1" vertex="1">
          <mxGeometry x="755" y="452" width="285" height="92" as="geometry" />
        </mxCell>
        <mxCell id="dMUp6H3SG2-F3wlHeGuU-69" value="id SERIAL" style="shape=partialRectangle;top=0;left=0;right=0;bottom=1;html=1;align=left;verticalAlign=middle;fillColor=none;spacingLeft=34;spacingRight=4;whiteSpace=wrap;overflow=hidden;rotatable=0;points=[[0,0.5],[1,0.5]];portConstraint=eastwest;dropTarget=0;fontStyle=5;rounded=1;" parent="dMUp6H3SG2-F3wlHeGuU-68" vertex="1">
          <mxGeometry y="26" width="285" height="30" as="geometry" />
        </mxCell>
        <mxCell id="dMUp6H3SG2-F3wlHeGuU-70" value="PK" style="shape=partialRectangle;top=0;left=0;bottom=0;html=1;fillColor=none;align=left;verticalAlign=middle;spacingLeft=4;spacingRight=4;whiteSpace=wrap;overflow=hidden;rotatable=0;points=[];portConstraint=eastwest;part=1;rounded=1;" parent="dMUp6H3SG2-F3wlHeGuU-69" vertex="1" connectable="0">
          <mxGeometry width="30" height="30" as="geometry" />
        </mxCell>
        <mxCell id="dMUp6H3SG2-F3wlHeGuU-71" value="customer_id INTEGER" style="shape=partialRectangle;top=0;left=0;right=0;bottom=0;html=1;align=left;verticalAlign=top;fillColor=none;spacingLeft=34;spacingRight=4;whiteSpace=wrap;overflow=hidden;rotatable=0;points=[[0,0.5],[1,0.5]];portConstraint=eastwest;dropTarget=0;rounded=1;" parent="dMUp6H3SG2-F3wlHeGuU-68" vertex="1">
          <mxGeometry y="56" width="285" height="26" as="geometry" />
        </mxCell>
        <mxCell id="dMUp6H3SG2-F3wlHeGuU-72" value="" style="shape=partialRectangle;top=0;left=0;bottom=0;html=1;fillColor=none;align=left;verticalAlign=top;spacingLeft=4;spacingRight=4;whiteSpace=wrap;overflow=hidden;rotatable=0;points=[];portConstraint=eastwest;part=1;rounded=1;" parent="dMUp6H3SG2-F3wlHeGuU-71" vertex="1" connectable="0">
          <mxGeometry width="30" height="26" as="geometry" />
        </mxCell>
        <mxCell id="dMUp6H3SG2-F3wlHeGuU-79" value="" style="shape=partialRectangle;top=0;left=0;right=0;bottom=0;html=1;align=left;verticalAlign=top;fillColor=none;spacingLeft=34;spacingRight=4;whiteSpace=wrap;overflow=hidden;rotatable=0;points=[[0,0.5],[1,0.5]];portConstraint=eastwest;dropTarget=0;rounded=1;" parent="dMUp6H3SG2-F3wlHeGuU-68" vertex="1">
          <mxGeometry y="82" width="285" height="10" as="geometry" />
        </mxCell>
        <mxCell id="dMUp6H3SG2-F3wlHeGuU-80" value="" style="shape=partialRectangle;top=0;left=0;bottom=0;html=1;fillColor=none;align=left;verticalAlign=top;spacingLeft=4;spacingRight=4;whiteSpace=wrap;overflow=hidden;rotatable=0;points=[];portConstraint=eastwest;part=1;rounded=1;" parent="dMUp6H3SG2-F3wlHeGuU-79" vertex="1" connectable="0">
          <mxGeometry width="30" height="10" as="geometry" />
        </mxCell>
      </root>
    </mxGraphModel>
  </diagram>
</mxfile>
